<svg width="210" height="32" viewBox="0 0 210 32" fill="none" xmlns="http://www.w3.org/2000/svg">
<g clip-path="url(#clip0_0_1919)">
<path d="M12.2308 29.2531C11.1248 29.6898 9.98595 30.0338 8.82561 30.2815C7.36325 30.5814 5.87999 30.7957 4.39674 30.6457C3.3522 30.5386 2.30766 30.41 1.34668 29.8101C0.385698 29.2102 -0.073904 28.0961 0.00966141 26.8534C0.129461 25.1537 0.764555 23.6301 1.40416 22.0957C1.43375 22.0247 1.46336 21.9537 1.49291 21.8826C2.34796 19.8171 3.41227 17.8494 4.66833 16.012C5.80172 14.3287 7.04404 12.7253 8.3869 11.2127C10.3787 8.90812 12.5824 6.80582 14.9675 4.93493C16.971 3.40617 19.19 2.19961 21.5481 1.35685C22.6786 0.963413 23.8293 0.634382 24.9951 0.371269C25.4107 0.27182 25.8355 0.228894 26.2572 0.186269L26.2576 0.18624C26.4718 0.16459 26.6852 0.143019 26.8962 0.114158C27.6499 0.000170808 28.4135 -0.0285696 29.1733 0.0284568C30.1014 0.0904851 31.0234 0.226592 31.9309 0.435543C33.1173 0.774383 34.2603 1.25625 35.3361 1.87106C36.6522 2.62096 37.3417 3.71367 37.2999 5.25632C37.2581 6.79897 36.8612 7.72027 35.8793 8.59872C35.7122 8.77013 35.5868 8.81298 35.3988 8.59872C34.4169 7.50601 33.1426 7.09893 31.7429 6.90609C30.6451 6.78093 29.5365 6.79532 28.4421 6.94895C27.3179 7.07109 26.2107 7.32264 25.1414 7.69885C23.2896 8.31828 21.5155 9.1597 19.856 10.2056C18.6818 10.9193 17.5516 11.7064 16.4717 12.5625C14.8053 13.8316 13.2532 15.2514 11.8339 16.8048C10.5387 18.2403 9.32699 19.7401 8.6167 21.6041C8.21479 22.5406 8.11951 23.5855 8.34512 24.5823C8.41723 24.7653 8.53379 24.9263 8.68371 25.0501C8.83363 25.1738 9.01193 25.2562 9.20164 25.2893C10.7893 25.5036 12.2726 25.0751 13.735 24.518C13.8025 24.4891 13.8685 24.4556 13.9346 24.4221C14.114 24.331 15.4428 23.7597 15.4428 23.7597C15.593 23.7009 15.743 23.6423 15.8868 23.5753C17.0566 23.0182 18.2265 22.4397 19.3755 21.8398C21.1304 20.8971 22.8643 19.9115 24.5774 18.9045C25.3508 18.4547 26.1182 17.9955 26.8853 17.5366C28.1279 16.793 29.3698 16.0499 30.6357 15.3478C32.188 14.473 33.7929 13.7001 35.4406 13.0338C36.2136 12.7339 36.9865 12.5196 37.8222 12.6482C38.6374 12.7736 39.2936 13.0621 40.004 13.3746L40.0575 13.3981C40.5069 13.5956 40.7353 13.7284 40.9465 13.8511C41.0789 13.9281 41.2045 14.0011 41.3736 14.0837C41.4262 14.1023 41.4743 14.1321 41.5149 14.1711C41.5555 14.21 41.5877 14.2573 41.6094 14.3098C41.6311 14.3623 41.6417 14.4189 41.6407 14.4759C41.6397 14.5329 41.627 14.5891 41.6034 14.6408L40.6633 17.7046L40.6632 17.7053L40.663 17.7057C40.4124 18.6052 40.1618 19.5048 39.9321 20.4257L39.3054 22.6754L38.7414 25.0965C38.6683 25.4178 38.5899 25.7445 38.5116 26.0712C38.4333 26.398 38.3549 26.7248 38.2818 27.0462C38.2465 27.3922 38.1907 27.7356 38.1146 28.0747C38.052 28.3103 38.2609 28.2246 38.3444 28.1818L41.2274 26.9177C43.3374 25.9964 45.4473 25.0751 47.5782 24.218C48.8199 23.7187 49.8843 23.2701 50.9284 22.8302L50.9293 22.8298C51.6766 22.5149 52.4136 22.2043 53.1978 21.8826L55.9554 20.7685C56.1669 20.6094 56.407 20.5284 56.6499 20.4465C56.7669 20.407 56.8845 20.3673 57 20.3185C56.7065 20.566 56.3792 20.7679 56.0287 20.9179C56.0277 20.9188 56.0266 20.9196 56.0255 20.9204C56.0243 20.9213 56.0231 20.9221 56.022 20.9229C56.0083 20.9322 55.9926 20.938 55.9763 20.9399L48.1214 25.4393L42.1048 28.8674C40.4335 29.8101 38.7414 30.7314 36.9865 31.5028C36.4743 31.7147 35.9423 31.8726 35.3988 31.9741C34.5214 32.1455 34.1036 31.4385 34.2498 30.6457C34.3245 30.2409 34.3665 29.9702 34.4036 29.7308C34.4392 29.5015 34.4703 29.3009 34.5214 29.0388C34.5691 28.7944 34.6298 28.4653 34.6956 28.1084L34.6963 28.1047L34.6964 28.1043C34.7746 27.6801 34.86 27.217 34.9392 26.8105C34.9955 26.5218 35.0487 26.2267 35.1024 25.929L35.1026 25.9281C35.1883 25.4528 35.2752 24.9706 35.3779 24.4966C35.5451 23.7252 35.6704 23.0611 35.7958 22.354C35.8329 22.1445 35.8756 21.9197 35.9199 21.6862L35.9201 21.6852C36.0254 21.1311 36.1401 20.5268 36.2136 19.9543C36.2427 19.7274 36.2718 19.5404 36.2973 19.3766C36.3633 18.9529 36.405 18.6849 36.3598 18.2831C36.2554 17.0404 35.7122 16.9547 34.7303 17.2547C33.7179 17.5514 32.8291 18.1016 31.9404 18.6518C31.6737 18.8169 31.4071 18.9819 31.1371 19.1402C29.7919 19.9184 28.4593 20.7097 27.1289 21.4996L27.1282 21.5001L27.1266 21.501L27.1263 21.5012L27.1232 21.5031C26.0382 22.1473 24.9548 22.7906 23.8671 23.4253C21.4437 24.8394 19.6053 25.8035 17.4327 26.9391C16.4996 27.439 15.5386 27.889 14.5497 28.2889C14.3541 28.425 14.1339 28.5197 13.9021 28.5674C13.6182 28.7417 13.3073 28.8649 12.9829 28.9317C12.7879 29.0602 12.6301 29.1126 12.4723 29.165C12.3933 29.1912 12.3144 29.2174 12.2308 29.2531Z" fill="#F97700"/>
<path d="M164.728 21.2555L165.408 21.2824H191.331C192.422 21.2824 193.045 20.7704 193.074 19.854C193.102 18.9377 192.479 18.2774 191.487 18.2639C189.376 18.2505 187.28 18.3044 185.183 18.2505C183.328 18.21 181.925 17.3746 181.104 15.7979C180.282 14.2213 180.438 12.739 181.444 11.3375C182.449 9.93609 183.54 9.45098 185.084 9.4375H209.378L209.619 9.47792V12.3078H203.485V24.1392H200.426V12.3752C200.156 12.3617 199.972 12.3213 199.802 12.3213H185.353C184.546 12.3213 183.937 12.7255 183.71 13.3723C183.599 13.6843 183.602 14.0226 183.718 14.3329C183.833 14.6433 184.055 14.9077 184.348 15.0837C184.668 15.2546 185.028 15.3472 185.396 15.3532C187.407 15.3802 189.419 15.3532 191.416 15.3667C193.414 15.3802 194.66 16.1348 195.538 17.6441C196.417 19.1533 196.374 20.703 195.383 22.1584C194.561 23.4116 193.314 24.1662 191.756 24.1662C181.883 24.1931 172.009 24.1797 162.15 24.1797H161.739V9.4914H177.095V12.3347H164.728V21.2555Z" fill="#0A275E"/>
<path d="M123.677 9.43751C124.64 9.43751 125.547 9.41056 126.467 9.45099C126.666 9.46446 126.907 9.68007 127.062 9.85525C129.99 13.0983 132.913 16.3504 135.831 19.6115C135.913 19.6613 135.998 19.7063 136.086 19.7463V9.46446H139.089V24.1797C138.14 24.1797 137.219 24.2066 136.313 24.1662C136.114 24.1662 135.902 23.9776 135.76 23.8158L127.431 14.5851L126.652 13.7631V24.1393H123.677V9.43751Z" fill="#0A275E"/>
<path d="M85.9961 24.1256V9.47778H89.0134V21.2688H101.451V24.1256H85.9961Z" fill="#0A275E"/>
<path d="M142.673 9.43731C143.735 9.43731 144.656 9.45079 145.577 9.42384C145.988 9.41036 146.143 9.57207 146.313 9.89548C147.517 12.3345 148.75 14.7736 149.982 17.2127L150.407 17.9942C150.917 16.9701 151.385 16.0672 151.838 15.1509C152.716 13.4126 153.595 11.6877 154.459 9.94938C154.629 9.57207 154.841 9.39689 155.294 9.42384C156.187 9.46426 157.079 9.43731 158.113 9.43731L150.393 24.8667L142.673 9.43731Z" fill="#0A275E"/>
<path d="M82.4259 24.1796C81.321 24.1796 80.3435 24.22 79.3519 24.1661C79.1536 24.1527 78.8845 23.8562 78.7712 23.6406C77.4821 21.1207 76.2213 18.6008 74.9464 16.0809C74.8898 15.9596 74.8048 15.8652 74.6915 15.6631L73.3032 18.3717C72.4108 20.1505 71.5184 21.9292 70.6401 23.708C70.4701 24.0718 70.2576 24.2066 69.8468 24.1931C68.926 24.1661 68.0194 24.1796 66.9854 24.1796C69.5777 19.0185 72.1133 13.9517 74.7056 8.76367L82.4259 24.1796Z" fill="#0A275E"/>
<path d="M105.034 9.46436H107.981V24.1526H105.034V9.46436Z" fill="#0A275E"/>
<path d="M120.022 24.1523H117.146V9.47754H120.022V24.1523Z" fill="#0A275E"/>
<path d="M168.737 15.3936H177.095V18.2234H168.737V15.3936Z" fill="#0A275E"/>
<path d="M107.981 7.69899H105.034V4.86914H107.981V7.69899Z" fill="#0A275E"/>
<path d="M117.132 7.69894V4.88257H120.007V7.69894H117.132Z" fill="#0A275E"/>
</g>
<defs>
<clipPath id="clip0_0_1919">
<rect width="210" height="32" fill="white"/>
</clipPath>
</defs>
</svg>
